<mxfile host="app.diagrams.net" modified="2024-02-07T03:58:35.773Z" agent="Mozilla/5.0 (Windows NT 10.0; Win64; x64) AppleWebKit/537.36 (KHTML, like Gecko) Chrome/121.0.0.0 Safari/537.36" etag="SNF3EL32qcHvrIkUSPhR" version="23.1.1" type="github">
  <diagram name="Halaman-1" id="AtvrEBhI41xPXYe3vo4j">
    <mxGraphModel dx="1388" dy="790" grid="1" gridSize="10" guides="1" tooltips="1" connect="1" arrows="1" fold="1" page="1" pageScale="1" pageWidth="827" pageHeight="1169" math="0" shadow="0">
      <root>
        <mxCell id="0" />
        <mxCell id="1" parent="0" />
        <mxCell id="qDkghE5DA0OsEVdK3eFN-2" value="Pengunjung" style="shape=umlActor;verticalLabelPosition=bottom;verticalAlign=top;html=1;outlineConnect=0;" vertex="1" parent="1">
          <mxGeometry x="10" y="350" width="60" height="100" as="geometry" />
        </mxCell>
        <mxCell id="qDkghE5DA0OsEVdK3eFN-4" value="" style="whiteSpace=wrap;html=1;aspect=fixed;" vertex="1" parent="1">
          <mxGeometry x="158" y="120" width="511" height="511" as="geometry" />
        </mxCell>
        <mxCell id="qDkghE5DA0OsEVdK3eFN-8" value="Perpus Digital" style="text;html=1;strokeColor=none;fillColor=none;align=center;verticalAlign=middle;whiteSpace=wrap;rounded=0;" vertex="1" parent="1">
          <mxGeometry x="251" y="140" width="290" height="30" as="geometry" />
        </mxCell>
        <mxCell id="qDkghE5DA0OsEVdK3eFN-9" value="" style="ellipse;whiteSpace=wrap;html=1;" vertex="1" parent="1">
          <mxGeometry x="305" y="180" width="200" height="100" as="geometry" />
        </mxCell>
        <mxCell id="qDkghE5DA0OsEVdK3eFN-10" value="From Pengunjung" style="text;html=1;strokeColor=none;fillColor=none;align=center;verticalAlign=middle;whiteSpace=wrap;rounded=0;" vertex="1" parent="1">
          <mxGeometry x="355" y="210" width="100" height="30" as="geometry" />
        </mxCell>
        <mxCell id="qDkghE5DA0OsEVdK3eFN-13" value="" style="ellipse;whiteSpace=wrap;html=1;" vertex="1" parent="1">
          <mxGeometry x="310" y="290" width="190" height="90" as="geometry" />
        </mxCell>
        <mxCell id="qDkghE5DA0OsEVdK3eFN-15" value="" style="ellipse;whiteSpace=wrap;html=1;" vertex="1" parent="1">
          <mxGeometry x="310" y="410" width="200" height="90" as="geometry" />
        </mxCell>
        <mxCell id="qDkghE5DA0OsEVdK3eFN-16" value="" style="ellipse;whiteSpace=wrap;html=1;" vertex="1" parent="1">
          <mxGeometry x="310" y="520" width="190" height="90" as="geometry" />
        </mxCell>
        <mxCell id="qDkghE5DA0OsEVdK3eFN-18" value="Pencarian Buku" style="text;html=1;strokeColor=none;fillColor=none;align=center;verticalAlign=middle;whiteSpace=wrap;rounded=0;" vertex="1" parent="1">
          <mxGeometry x="355" y="320" width="100" height="30" as="geometry" />
        </mxCell>
        <mxCell id="qDkghE5DA0OsEVdK3eFN-19" value="Detail Buku" style="text;html=1;strokeColor=none;fillColor=none;align=center;verticalAlign=middle;whiteSpace=wrap;rounded=0;" vertex="1" parent="1">
          <mxGeometry x="360" y="440" width="100" height="30" as="geometry" />
        </mxCell>
        <mxCell id="qDkghE5DA0OsEVdK3eFN-20" value="Laporan Statistik" style="text;html=1;strokeColor=none;fillColor=none;align=center;verticalAlign=middle;whiteSpace=wrap;rounded=0;" vertex="1" parent="1">
          <mxGeometry x="355" y="550" width="100" height="30" as="geometry" />
        </mxCell>
        <mxCell id="qDkghE5DA0OsEVdK3eFN-25" value="Pustakawan" style="shape=umlActor;verticalLabelPosition=bottom;verticalAlign=top;html=1;outlineConnect=0;" vertex="1" parent="1">
          <mxGeometry x="740" y="340" width="60" height="100" as="geometry" />
        </mxCell>
        <mxCell id="qDkghE5DA0OsEVdK3eFN-26" value="" style="endArrow=none;html=1;rounded=0;entryX=0;entryY=0.5;entryDx=0;entryDy=0;" edge="1" parent="1" target="qDkghE5DA0OsEVdK3eFN-9">
          <mxGeometry width="50" height="50" relative="1" as="geometry">
            <mxPoint x="90" y="360" as="sourcePoint" />
            <mxPoint x="140" y="310" as="targetPoint" />
            <Array as="points">
              <mxPoint x="140" y="230" />
            </Array>
          </mxGeometry>
        </mxCell>
        <mxCell id="qDkghE5DA0OsEVdK3eFN-32" value="" style="endArrow=none;html=1;rounded=0;exitX=1;exitY=0.5;exitDx=0;exitDy=0;" edge="1" parent="1" source="qDkghE5DA0OsEVdK3eFN-9">
          <mxGeometry width="50" height="50" relative="1" as="geometry">
            <mxPoint x="680" y="390" as="sourcePoint" />
            <mxPoint x="720" y="350" as="targetPoint" />
            <Array as="points">
              <mxPoint x="670" y="230" />
            </Array>
          </mxGeometry>
        </mxCell>
        <mxCell id="qDkghE5DA0OsEVdK3eFN-34" value="" style="endArrow=none;html=1;rounded=0;entryX=0.317;entryY=0.45;entryDx=0;entryDy=0;entryPerimeter=0;" edge="1" parent="1" target="qDkghE5DA0OsEVdK3eFN-4">
          <mxGeometry width="50" height="50" relative="1" as="geometry">
            <mxPoint x="90" y="400.5" as="sourcePoint" />
            <mxPoint x="140" y="350.5" as="targetPoint" />
          </mxGeometry>
        </mxCell>
        <mxCell id="qDkghE5DA0OsEVdK3eFN-35" value="" style="endArrow=none;html=1;rounded=0;entryX=-0.01;entryY=0.578;entryDx=0;entryDy=0;entryPerimeter=0;" edge="1" parent="1" target="qDkghE5DA0OsEVdK3eFN-15">
          <mxGeometry width="50" height="50" relative="1" as="geometry">
            <mxPoint x="90" y="470" as="sourcePoint" />
            <mxPoint x="140" y="420" as="targetPoint" />
          </mxGeometry>
        </mxCell>
        <mxCell id="qDkghE5DA0OsEVdK3eFN-36" value="" style="endArrow=none;html=1;rounded=0;entryX=0.317;entryY=0.45;entryDx=0;entryDy=0;entryPerimeter=0;exitX=0.99;exitY=0.589;exitDx=0;exitDy=0;exitPerimeter=0;" edge="1" parent="1" source="qDkghE5DA0OsEVdK3eFN-13">
          <mxGeometry width="50" height="50" relative="1" as="geometry">
            <mxPoint x="480" y="350" as="sourcePoint" />
            <mxPoint x="730" y="384.5" as="targetPoint" />
          </mxGeometry>
        </mxCell>
        <mxCell id="qDkghE5DA0OsEVdK3eFN-37" value="" style="endArrow=none;html=1;rounded=0;entryX=-0.01;entryY=0.578;entryDx=0;entryDy=0;entryPerimeter=0;exitX=1;exitY=0.5;exitDx=0;exitDy=0;" edge="1" parent="1" source="qDkghE5DA0OsEVdK3eFN-15">
          <mxGeometry width="50" height="50" relative="1" as="geometry">
            <mxPoint x="493" y="459" as="sourcePoint" />
            <mxPoint x="720" y="451" as="targetPoint" />
          </mxGeometry>
        </mxCell>
        <mxCell id="qDkghE5DA0OsEVdK3eFN-38" value="" style="endArrow=none;html=1;rounded=0;entryX=-0.01;entryY=0.578;entryDx=0;entryDy=0;entryPerimeter=0;" edge="1" parent="1" source="qDkghE5DA0OsEVdK3eFN-16">
          <mxGeometry width="50" height="50" relative="1" as="geometry">
            <mxPoint x="460" y="530" as="sourcePoint" />
            <mxPoint x="744.98" y="480" as="targetPoint" />
          </mxGeometry>
        </mxCell>
      </root>
    </mxGraphModel>
  </diagram>
</mxfile>
